External Loads File
version=1
nRows=54
nColumns=13
Range=5.000000e-03-10 seconds
endheader
time 	forceRightX 	forceRightY 	forceRightZ 	pointRightX 	pointRightY 	pointRightZ 	forceLeftX 	forceLeftY 	forceLeftZ 	pointLeftX 	pointLeftY 	pointLeftZ 		
5.005000 -124.983540 -208.585081 -0.000000 0.075953 0.245423 -0.120041 -72.994104 407.837269 -0.000000 0.356464 0.354406 -0.366152
5.010000 -127.508271 -191.055972 -0.000000 0.074616 0.255133 -0.120011 -81.956214 422.525624 -0.000000 0.357913 0.343544 -0.366130
5.015000 -124.449095 -169.668549 -0.000000 0.073782 0.265265 -0.119845 -89.320331 436.875998 -0.000000 0.358831 0.332587 -0.365834
5.020000 -116.516404 -146.753296 -0.000000 0.073481 0.275884 -0.119734 -95.313428 451.642527 -0.000000 0.359155 0.321903 -0.365568
5.025000 -105.175726 -123.977689 -0.000000 0.073707 0.286617 -0.119711 -99.225911 467.663782 -0.000000 0.358918 0.310867 -0.365771
5.030000 -91.646356 -102.703427 -0.000000 0.074493 0.297479 -0.119758 -101.434786 485.432770 -0.000000 0.357981 0.299937 -0.365350
5.035000 -77.275423 -83.511556 -0.000000 0.075971 0.308500 -0.119875 -101.338370 505.539895 -0.000000 0.356661 0.288991 -0.365012
5.040000 -62.958242 -66.741712 -0.000000 0.078205 0.319345 -0.119951 -98.946401 528.227698 -0.000000 0.354496 0.277989 -0.364832
5.045000 -49.344584 -52.488822 -0.000000 0.080942 0.330145 -0.120160 -93.946206 553.446400 -0.000000 0.351697 0.267180 -0.364734
5.050000 -36.863073 -40.768732 -0.000000 0.084321 0.340864 -0.120354 -85.771323 580.829366 -0.000000 0.348181 0.256579 -0.364612
5.055000 -25.763771 -31.640503 -0.000000 0.088397 0.351367 -0.120442 -74.556601 609.681090 -0.000000 0.344042 0.246344 -0.364390
5.060000 -16.298806 -25.118469 -0.000000 0.092846 0.361709 -0.120664 -60.355900 639.279159 -0.000000 0.339418 0.236439 -0.364486
5.065000 -8.769144 -21.122720 -0.000000 0.097920 0.371852 -0.120971 -42.402103 668.973351 -0.000000 0.333888 0.226732 -0.364135
5.070000 -3.362644 -19.442347 -0.000000 0.103673 0.381826 -0.121078 -24.135534 697.854179 -0.000000 0.329746 0.217437 -0.361183
5.075000 -0.509061 -19.515236 -0.000000 0.109815 0.391383 -0.121375 0.825790 725.394841 -0.000000 0.321426 0.208718 -0.363658
5.080000 -0.103355 -20.581725 -0.000000 0.116472 0.400560 -0.121683 25.071841 750.683441 -0.000000 0.314382 0.200466 -0.363343
5.085000 -2.117511 -21.704370 -0.000000 0.123717 0.409266 -0.122072 51.006478 773.249613 -0.000000 0.306792 0.192591 -0.363117
5.090000 -6.224453 -22.000256 -0.000000 0.131532 0.417329 -0.122364 77.351033 792.810015 -0.000000 0.298896 0.185115 -0.362920
5.095000 -11.934900 -20.781381 -0.000000 0.139728 0.424780 -0.122678 103.305245 809.246613 -0.000000 0.290629 0.178152 -0.362759
5.100000 -18.700121 -17.605890 -0.000000 0.148721 0.431654 -0.122806 129.536563 822.272705 -0.000000 0.282066 0.171675 -0.362680
5.105000 -25.907565 -12.373444 -0.000000 0.157732 0.437757 -0.123130 153.443740 832.060884 -0.000000 0.273248 0.165866 -0.362573
5.110000 -33.115360 -5.103958 -0.000000 0.167454 0.443347 -0.123104 177.096755 838.023996 -0.000000 0.264239 0.160568 -0.362430
5.115000 -39.918323 3.843669 -0.000000 0.176653 0.448258 -0.123525 197.004093 840.607381 -0.000000 0.255054 0.155773 -0.362374
5.120000 -46.011314 14.392831 -0.000000 0.186952 0.452720 -0.123373 217.754309 838.410720 -0.000000 0.245620 0.151682 -0.362318
5.125000 -51.191867 26.018833 -0.000000 0.196788 0.456329 -0.123997 234.591858 832.145551 -0.000000 0.236141 0.148157 -0.362259
5.130000 -55.225678 38.539084 -0.000000 0.206833 0.459342 -0.124274 249.969528 820.685729 -0.000000 0.226434 0.145265 -0.362239
5.135000 -57.964081 51.570535 -0.000000 0.217163 0.461526 -0.124561 263.327486 803.569605 -0.000000 0.216768 0.143162 -0.362154
5.140000 -59.148916 64.881029 -0.000000 0.228374 0.463090 -0.124692 276.400366 779.496734 -0.000000 0.206997 0.141640 -0.362123
5.145000 -59.426924 77.516065 -0.000000 0.237350 0.464146 -0.124528 281.035757 750.759336 -0.000000 0.197255 0.140910 -0.361922
5.150000 -58.229964 89.762528 -0.000000 0.247195 0.464709 -0.124587 284.410772 714.460783 -0.000000 0.187639 0.140855 -0.361889
5.155000 -55.803480 101.304888 -0.000000 0.256838 0.464583 -0.124509 284.101314 671.329031 -0.000000 0.178033 0.141535 -0.361786
5.160000 -52.313565 112.114135 -0.000000 0.266143 0.463949 -0.124215 279.394130 621.799214 -0.000000 0.168593 0.142982 -0.361731
5.165000 -47.733260 122.417783 -0.000000 0.275140 0.462499 -0.124251 270.728931 566.110979 -0.000000 0.159206 0.145124 -0.361564
5.170000 -42.078151 132.501713 -0.000000 0.283794 0.460635 -0.124020 257.879270 505.152900 -0.000000 0.149894 0.148074 -0.361277
5.175000 -36.529129 142.406829 -0.000000 0.292160 0.458024 -0.123731 237.015684 442.223908 -0.000000 0.141060 0.145262 -0.360966
5.180000 -29.078262 153.137405 -0.000000 0.299633 0.455070 -0.123569 215.550122 375.116629 -0.000000 0.132534 0.149514 -0.360792
5.185000 -20.369304 164.926150 -0.000000 0.306927 0.451596 -0.123228 191.235438 306.792635 -0.000000 0.124371 0.154417 -0.360178
5.190000 -8.582614 178.344202 -0.000000 0.313582 0.447258 -0.123047 167.059414 237.215305 -0.000000 0.116686 0.166343 -0.359595
5.195000 2.489522 193.473132 -0.000000 0.319639 0.442724 -0.122869 137.991947 171.832353 -0.000000 0.109507 0.172267 -0.359199
5.200000 11.814092 210.933464 -0.000000 0.325163 0.437636 -0.122775 106.965040 111.235950 -0.000000 0.102899 0.172068 -0.358887
5.205000 27.083939 230.289221 -0.000000 0.330344 0.432079 -0.122389 79.167126 52.419479 -0.000000 0.096718 0.185173 -0.359202
5.210000 37.850969 252.258889 -0.000000 0.334671 0.425726 -0.122074 51.243495 0.736278 -0.000000 0.091010 0.188849 -0.358933
5.215000 51.926547 275.662029 -0.000000 0.338884 0.418795 -0.121717 25.221908 -45.564438 -0.000000 0.085594 0.199742 -0.358492
5.220000 62.961914 301.331581 -0.000000 0.342928 0.411112 -0.121290 1.433762 -84.474113 -0.000000 0.080691 0.207896 -0.358255
5.225000 71.811881 329.154756 -0.000000 0.346841 0.402649 -0.120806 -19.682937 -115.565696 -0.000000 0.076314 0.216104 -0.358174
5.230000 77.830639 359.236822 -0.000000 0.350284 0.393668 -0.120275 -37.587083 -138.334408 -0.000000 0.072519 0.224530 -0.358223
5.235000 80.944635 391.213050 -0.000000 0.353243 0.384370 -0.119920 -51.712245 -152.721321 -0.000000 0.069302 0.233160 -0.358346
5.240000 82.153930 423.751657 -0.000000 0.355935 0.374719 -0.120316 -61.741101 -159.144725 -0.000000 0.066491 0.242089 -0.358590
5.245000 82.062598 454.986981 -0.000000 0.358290 0.364943 -0.120335 -67.265294 -158.657567 -0.000000 0.064041 0.251364 -0.358784
5.250000 82.367023 483.023342 -0.000000 0.360211 0.354276 -0.119790 -68.575291 -152.540464 -0.000000 0.061921 0.260981 -0.358933
5.255000 82.648799 507.136622 -0.000000 0.361956 0.343450 -0.119790 -65.622665 -142.507098 -0.000000 0.060469 0.271056 -0.359086
5.260000 82.364393 527.400272 -0.000000 0.362707 0.332637 -0.119533 -58.774463 -130.137599 -0.000000 0.059268 0.281376 -0.359197
5.265000 82.522869 544.194809 -0.000000 0.363361 0.321423 -0.119529 -49.103562 -116.521196 -0.000000 0.058669 0.291904 -0.359343
5.270000 82.198752 558.521993 -0.000000 0.363621 0.310157 -0.119160 -37.362853 -102.595068 -0.000000 0.058663 0.302365 -0.359501
